<?xml version="1.0" encoding="UTF-8" standalone="no"?>
<!DOCTYPE svg PUBLIC "-//W3C//DTD SVG 1.1//EN" "http://www.w3.org/Graphics/SVG/1.1/DTD/svg11.dtd">
<svg width="283" height="40" viewBox="0 0 283 40" version="1.1" xmlns="http://www.w3.org/2000/svg" style="fill-rule:evenodd;clip-rule:evenodd;stroke-linejoin:round;stroke-miterlimit:2;"><path d="M73.07,12.388c0.899,0 1.348,0.379 1.348,1.174c0,1.311 -0.726,2.002 -1.935,2.002l-5.804,0l-3.558,20.191c-0.208,1.07 -0.795,1.587 -1.866,1.587c-0.898,0 -1.347,-0.345 -1.347,-1.138c0,-0.208 0,-0.311 0.069,-0.449l3.524,-20.191l-5.286,0c-0.863,0 -1.312,-0.415 -1.312,-1.14c0,-1.38 0.691,-2.036 1.9,-2.036l14.267,0Z" style="fill:#fff;fill-rule:nonzero;"/><path d="M86.819,34.132l3.247,-18.569l-9.673,0l-3.317,18.569l9.743,0Zm3.213,0.38c-0.312,1.622 -1.762,2.796 -3.386,2.796l-10.468,0c-1.313,0 -2.315,-0.932 -2.315,-2.278l0,-0.518l3.421,-19.363c0.31,-1.829 1.312,-2.76 3.316,-2.76l10.433,0c1.486,0 2.418,0.862 2.418,2.208c0,0.276 0,0.483 -0.033,0.552l-3.386,19.363Z" style="fill:#fff;fill-rule:nonzero;"/><path d="M100.187,13.561c0,0.173 0,0.277 -0.035,0.414l-1.624,9.147l1.003,0l10.916,-10.113c0.414,-0.414 0.726,-0.621 1.313,-0.621c0.76,0 1.347,0.621 1.347,1.346c0,0.553 -0.207,0.898 -0.587,1.277l-8.775,8.111l5.251,0c1.659,0 2.868,1.208 2.868,2.83c0,0.242 -0.035,0.449 -0.07,0.691l-1.589,9.077c-0.207,1.07 -0.829,1.588 -1.831,1.588c-0.932,0 -1.382,-0.38 -1.382,-1.139c0,-0.173 0,-0.311 0.035,-0.449l1.589,-9.077c0,-0.242 -0.069,-0.345 -0.173,-0.345l-10.467,0l-1.658,9.422c-0.208,1.07 -0.829,1.588 -1.866,1.588c-0.898,0 -1.347,-0.38 -1.347,-1.139c0,-0.173 0,-0.311 0.034,-0.449l3.835,-21.745c0.207,-1.069 0.829,-1.587 1.865,-1.587c0.898,0 1.348,0.379 1.348,1.173" style="fill:#fff;fill-rule:nonzero;"/><path d="M131.899,12.388c0.898,0 1.348,0.379 1.348,1.174c0,1.311 -0.76,2.002 -1.935,2.002l-11.366,0l-1.243,7.144l7.289,0c0.864,0 1.312,0.38 1.312,1.139c0,1.347 -0.725,2.036 -1.899,2.036l-7.256,0l-1.485,8.249l12.023,0c0.897,0 1.347,0.381 1.347,1.174c0,1.312 -0.726,2.002 -1.9,2.002l-13.577,0c-0.83,0 -1.348,-0.552 -1.348,-1.312l0,-0.275l3.87,-21.746c0.138,-0.827 0.933,-1.587 1.865,-1.587l12.955,0Z" style="fill:#fff;fill-rule:nonzero;"/><path d="M150.933,13.975c-1.036,5.903 -2.072,11.805 -3.109,17.707c-2.28,-5.983 -4.56,-11.965 -6.84,-17.948c-0.381,-0.897 -1.002,-1.345 -1.935,-1.345c-1.313,0 -2.246,0.931 -2.487,2.139c-1.244,7.064 -2.488,14.128 -3.731,21.193c-0.07,0.137 -0.07,0.275 -0.07,0.448c0,0.759 0.449,1.139 1.383,1.139c1.07,0 1.623,-0.518 1.83,-1.587c1.06,-6.006 2.12,-12.012 3.179,-18.018c2.268,6.017 4.537,12.034 6.805,18.052c0.38,1.035 1.071,1.553 2.004,1.553c1.244,0 2.142,-1.07 2.418,-2.313c1.244,-7.006 2.487,-14.013 3.731,-21.02c0.035,-0.137 0.035,-0.241 0.035,-0.413c0,-0.795 -0.449,-1.173 -1.347,-1.173c-1.071,0 -1.658,0.517 -1.866,1.586Z" style="fill:#fff;fill-rule:nonzero;"/><path d="M183.413,12.388c0.898,0 1.347,0.379 1.347,1.174c0,1.311 -0.725,2.002 -1.935,2.002l-5.804,0l-3.558,20.191c-0.207,1.07 -0.795,1.587 -1.865,1.587c-0.899,0 -1.348,-0.345 -1.348,-1.138c0,-0.208 0,-0.311 0.07,-0.449l3.524,-20.191l-5.286,0c-0.864,0 -1.313,-0.415 -1.313,-1.14c0,-1.38 0.691,-2.036 1.9,-2.036l14.268,0Z" style="fill:#fff;fill-rule:nonzero;"/><path d="M197.161,34.132l3.247,-18.569l-9.673,0l-3.316,18.569l9.742,0Zm3.213,0.38c-0.312,1.622 -1.762,2.796 -3.385,2.796l-10.468,0c-1.313,0 -2.315,-0.932 -2.315,-2.278l0,-0.518l3.421,-19.363c0.31,-1.829 1.312,-2.76 3.316,-2.76l10.433,0c1.485,0 2.418,0.862 2.418,2.208c0,0.276 0,0.483 -0.034,0.552l-3.386,19.363Z" style="fill:#fff;fill-rule:nonzero;"/><path d="M217.093,34.132l3.247,-18.569l-9.672,0l-3.317,18.569l9.742,0Zm3.213,0.38c-0.311,1.622 -1.762,2.796 -3.386,2.796l-10.467,0c-1.313,0 -2.315,-0.932 -2.315,-2.278l0,-0.518l3.421,-19.363c0.31,-1.829 1.312,-2.76 3.316,-2.76l10.433,0c1.485,0 2.418,0.862 2.418,2.208c0,0.276 0,0.483 -0.034,0.552l-3.386,19.363Z" style="fill:#fff;fill-rule:nonzero;"/><path d="M230.461,13.561c0,0.173 0,0.277 -0.034,0.414l-3.594,20.158l12.3,0c0.897,0 1.347,0.379 1.347,1.173c0,1.311 -0.726,2.002 -1.865,2.002l-13.889,0c-0.691,0 -1.347,-0.552 -1.347,-1.312c0,-0.103 0,-0.241 0.035,-0.276l3.834,-21.745c0.208,-1.069 0.829,-1.587 1.866,-1.587c0.898,0 1.347,0.379 1.347,1.173" style="fill:#fff;fill-rule:nonzero;"/><path d="M262.416,12.388c0.932,0 1.347,0.76 1.347,1.587l-0.449,2.487c-0.207,1.035 -0.864,1.587 -1.901,1.587c-0.897,0 -1.312,-0.38 -1.312,-1.139c0,-0.207 0,-0.346 0.034,-0.448l0.104,-0.898l-9.57,0l-1.312,7.524l11.159,0c0.967,0 1.312,0.794 1.312,1.588l-1.934,11.045c-0.173,0.862 -1.002,1.587 -1.831,1.587l-12.852,0c-0.794,0 -1.347,-0.552 -1.347,-1.312c0,-0.103 0,-0.207 0.034,-0.275l0.519,-3.038c0.172,-1.07 0.794,-1.588 1.865,-1.588c0.864,0 1.278,0.483 1.278,1.416c0,0.413 -0.137,1.069 -0.241,1.621l9.672,0l1.383,-7.869l-11.193,0c-0.761,0 -1.313,-0.586 -1.313,-1.311c0,-0.139 0,-0.207 0.069,-0.276l1.865,-10.701c0.139,-0.827 0.933,-1.587 1.866,-1.587l12.748,0Z" style="fill:#fff;fill-rule:nonzero;"/><path d="M280.098,28.942l0.808,-4.7l-5.989,0l-0.809,4.7l5.99,0Zm2.115,-6.606c0.58,0 0.787,0.415 0.787,0.953l-1.16,6.606c-0.104,0.517 -0.622,0.952 -1.12,0.952l-0.788,0l0.974,5.239c0.021,0.062 0.021,0.124 0.021,0.27c-0.062,0.538 -0.414,0.952 -0.953,0.952c-0.538,0 -0.766,-0.187 -0.85,-0.58l-1.243,-5.881l-4.125,0l-0.974,5.467c-0.104,0.642 -0.497,0.952 -1.099,0.952c-0.538,0 -0.808,-0.228 -0.808,-0.683l0,-0.269l2.322,-13.025c0.124,-0.62 0.58,-0.953 1.119,-0.953l7.897,0Z" style="fill:#fff;fill-rule:nonzero;"/><path d="M0.854,28.722l42.102,0c0.484,-1.68 0.758,-3.399 0.829,-5.116l-43.763,0c0.074,1.732 0.351,3.452 0.832,5.116" style="fill:#fff;fill-rule:nonzero;"/><path d="M9.253,39.741c0.126,0.09 0.25,0.176 0.376,0.259l24.555,0c1.459,-0.983 2.813,-2.157 4.022,-3.513l-32.614,0c1.073,1.196 2.295,2.29 3.661,3.254" style="fill:#fff;fill-rule:nonzero;"/><path d="M3.636,34.761l36.522,0c0.919,-1.377 1.656,-2.825 2.224,-4.314l-40.954,0c0.568,1.507 1.305,2.952 2.208,4.314" style="fill:#fff;fill-rule:nonzero;"/><path d="M34.551,4.021c-9.873,-6.98 -23.54,-4.641 -30.526,5.223c-2.72,3.842 -4.028,8.261 -4.025,12.637l43.804,0c-0.006,-6.853 -3.226,-13.599 -9.253,-17.86" style="fill:#fff;fill-rule:nonzero;"/></svg>
